<svg xmlns="http://www.w3.org/2000/svg" xmlns:xlink="http://www.w3.org/1999/xlink" width="1920" height="869" viewBox="0 0 1920 869">
  <defs>
    <clipPath id="clip-bath_1">
      <rect width="1920" height="869"/>
    </clipPath>
  </defs>
  <g id="bath_1" data-name="bath 1" clip-path="url(#clip-bath_1)">
    <g id="Group_4" data-name="Group 4" transform="translate(353)">
      <path id="Rectangle_13" data-name="Rectangle 13" d="M20,0H250a20,20,0,0,1,20,20V250a0,0,0,0,1,0,0H0a0,0,0,0,1,0,0V20A20,20,0,0,1,20,0Z" transform="translate(685 619)" fill="#919191"/>
      <rect id="Rectangle_14" data-name="Rectangle 14" width="106" height="201" transform="translate(706 668)" fill="#7b7b7b"/>
      <rect id="Rectangle_15" data-name="Rectangle 15" width="108" height="201" transform="translate(827 668)" fill="#7b7b7b"/>
      <circle id="Ellipse_6" data-name="Ellipse 6" cx="13" cy="13" r="13" transform="translate(776 756)" fill="#4d4d4d"/>
      <circle id="Ellipse_7" data-name="Ellipse 7" cx="13" cy="13" r="13" transform="translate(836 756)" fill="#4d4d4d"/>
      <rect id="Rectangle_16" data-name="Rectangle 16" width="236" height="15" transform="translate(701 604)" fill="#dedede"/>
      <rect id="Rectangle_17" data-name="Rectangle 17" width="15" height="83" transform="translate(812 521)" fill="#c8c8c8"/>
      <rect id="Rectangle_18" data-name="Rectangle 18" width="33" height="14" transform="translate(803 546)" fill="#f1f1f1"/>
      <rect id="Rectangle_19" data-name="Rectangle 19" width="15" height="25" transform="translate(812 521)" fill="#f1f1f1"/>
      <rect id="Rectangle_20" data-name="Rectangle 20" width="15" height="9" transform="translate(774 595)" fill="#c8c8c8"/>
      <rect id="Rectangle_21" data-name="Rectangle 21" width="38" height="9" transform="translate(764 586)" fill="#c8c8c8"/>
      <rect id="Rectangle_22" data-name="Rectangle 22" width="15" height="9" transform="translate(850 595)" fill="#c8c8c8"/>
      <rect id="Rectangle_23" data-name="Rectangle 23" width="38" height="9" transform="translate(838 586)" fill="#c8c8c8"/>
    </g>
    <g id="Group_5" data-name="Group 5" transform="translate(-57)">
      <path id="Path_1" data-name="Path 1" d="M36,0H576a36,36,0,0,1,36,36L581.148,160a36,36,0,0,1-36,36H66.565a36,36,0,0,1-36-36L0,36A36,36,0,0,1,36,0Z" transform="translate(379 673)" fill="#fcfcfc"/>
      <rect id="Rectangle_24" data-name="Rectangle 24" width="11" height="382" transform="translate(434 291)" fill="#c8c8c8"/>
      <rect id="Rectangle_25" data-name="Rectangle 25" width="62" height="13" transform="translate(434 291)" fill="#c8c8c8"/>
      <rect id="Rectangle_26" data-name="Rectangle 26" width="11" height="42" transform="translate(485 291)" fill="#c8c8c8"/>
      <rect id="Rectangle_27" data-name="Rectangle 27" width="62" height="13" transform="matrix(0.848, -0.53, 0.53, 0.848, 465, 343.915)" fill="#c8c8c8"/>
    </g>
    <g id="Group_6" data-name="Group 6" transform="translate(-81)">
      <path id="Path_2" data-name="Path 2" d="M19,0H119a19,19,0,0,1,19,19L105.554,242a19,19,0,0,1-19,19h-30.1a19,19,0,0,1-19-19L0,19A19,19,0,0,1,19,0Z" transform="translate(1457 608)" fill="#f6f6f6"/>
      <rect id="Rectangle_28" data-name="Rectangle 28" width="138" height="23" transform="translate(1457 739)" fill="#fff"/>
      <path id="Path_3" data-name="Path 3" d="M0,0H138L105.554,118.5H29.786Z" transform="translate(1457 750.5)" fill="#fff"/>
    </g>
    <g id="Rectangle_92" data-name="Rectangle 92" fill="none" stroke="rgba(252,252,252,0.01)" stroke-width="1">
      <rect width="1920" height="869" stroke="none"/>
      <rect x="0.5" y="0.5" width="1919" height="868" fill="none"/>
    </g>
  </g>
</svg>
