<svg xmlns="http://www.w3.org/2000/svg" xmlns:xlink="http://www.w3.org/1999/xlink" width="1920" height="869" viewBox="0 0 1920 869">
  <defs>
    <clipPath id="clip-living">
      <rect width="1920" height="869"/>
    </clipPath>
  </defs>
  <g id="living" clip-path="url(#clip-living)">
    <g id="Group_9" data-name="Group 9" transform="translate(-528)">
      <rect id="Rectangle_29" data-name="Rectangle 29" width="497" height="285" transform="translate(865 500)" fill="#2a2a2a"/>
      <rect id="Rectangle_31" data-name="Rectangle 31" width="568" height="23" transform="translate(831 780)" fill="#6e6e6e"/>
      <rect id="Rectangle_30" data-name="Rectangle 30" width="438" height="246" transform="translate(895 520)"/>
      <rect id="Rectangle_32" data-name="Rectangle 32" width="568" height="21" transform="translate(831 848)" fill="#6e6e6e"/>
      <rect id="Rectangle_33" data-name="Rectangle 33" width="23" height="53" transform="translate(831 798)" fill="#6e6e6e"/>
      <rect id="Rectangle_34" data-name="Rectangle 34" width="23" height="53" transform="translate(1376 798)" fill="#6e6e6e"/>
      <rect id="Rectangle_35" data-name="Rectangle 35" width="23" height="53" transform="translate(976 798)" fill="#6e6e6e"/>
      <rect id="Rectangle_36" data-name="Rectangle 36" width="23" height="53" transform="translate(1253 798)" fill="#6e6e6e"/>
      <g id="Group_7" data-name="Group 7">
        <rect id="Rectangle_38" data-name="Rectangle 38" width="18" height="42" transform="translate(928 806)" fill="#b4b4b4"/>
        <rect id="Rectangle_39" data-name="Rectangle 39" width="18" height="42" transform="translate(951 806)" fill="#b4b4b4"/>
        <rect id="Rectangle_40" data-name="Rectangle 40" width="8" height="42" transform="translate(943 806)" fill="#d2d2d2"/>
      </g>
      <g id="Group_8" data-name="Group 8">
        <rect id="Rectangle_37" data-name="Rectangle 37" width="64" height="22" transform="translate(859 826)" fill="#b4b4b4"/>
        <rect id="Rectangle_41" data-name="Rectangle 41" width="9" height="22" transform="translate(914 826)" fill="#d2d2d2"/>
      </g>
      <rect id="Rectangle_42" data-name="Rectangle 42" width="10" height="36" transform="translate(1328 812)" fill="#b87777"/>
      <rect id="Rectangle_43" data-name="Rectangle 43" width="10" height="36" transform="translate(1343 812)" fill="#9377b8"/>
      <rect id="Rectangle_44" data-name="Rectangle 44" width="10" height="36" transform="translate(1358 812)" fill="#77b891"/>
      <rect id="Rectangle_45" data-name="Rectangle 45" width="10" height="36" transform="translate(1318.937 812) rotate(25)" fill="#77afb8"/>
      <rect id="Rectangle_46" data-name="Rectangle 46" width="230" height="18" transform="translate(1012 830)" fill="#a4a4a4"/>
    </g>
    <g id="Group_11" data-name="Group 11">
      <rect id="Rectangle_47" data-name="Rectangle 47" width="149" height="18" transform="translate(1512 851)" fill="#2a2a2a"/>
      <rect id="Rectangle_48" data-name="Rectangle 48" width="17" height="443" transform="translate(1578 413)" fill="#2a2a2a"/>
      <path id="Path_4" data-name="Path 4" d="M31.567,0H95.8a12,12,0,0,1,12,12L129,137a12,12,0,0,1-12,12H12A12,12,0,0,1,0,137L19.567,12A12,12,0,0,1,31.567,0Z" transform="translate(1522 286)" fill="#f8f8f8"/>
    </g>
    <g id="Group_14" data-name="Group 14" transform="translate(730.125 -28.831)">
      <rect id="Rectangle_52" data-name="Rectangle 52" width="220" height="180" rx="18" transform="translate(316.875 648.831)" fill="#325a35"/>
      <rect id="Rectangle_51" data-name="Rectangle 51" width="219" height="180" rx="18" transform="translate(536.875 648.831)" fill="#325a35"/>
      <rect id="Rectangle_49" data-name="Rectangle 49" width="491" height="64" rx="18" transform="translate(290.875 796.831)" fill="#396e3d"/>
      <path id="Rectangle_50" data-name="Rectangle 50" d="M0,0H439a0,0,0,0,1,0,0V30a19,19,0,0,1-19,19H19A19,19,0,0,1,0,30V0A0,0,0,0,1,0,0Z" transform="translate(316.875 848.831)" fill="#3a643d"/>
      <rect id="Rectangle_55" data-name="Rectangle 55" width="439" height="140" rx="18" transform="translate(316.875 688.831)" fill="#325a35"/>
      <rect id="Rectangle_53" data-name="Rectangle 53" width="246" height="63" rx="18" transform="translate(290.875 785.831)" fill="#396e3d"/>
      <rect id="Rectangle_54" data-name="Rectangle 54" width="245" height="63" rx="18" transform="translate(536.875 785.831)" fill="#396e3d"/>
      <g id="Group_12" data-name="Group 12" transform="translate(359.994 689.718)" opacity="0.47">
        <circle id="Ellipse_8" data-name="Ellipse 8" cx="8" cy="8" r="8" transform="translate(-0.119 0.113)" fill="#7e9503"/>
        <circle id="Ellipse_9" data-name="Ellipse 9" cx="8" cy="8" r="8" transform="translate(108.881 0.113)" fill="#7e9503"/>
        <circle id="Ellipse_10" data-name="Ellipse 10" cx="8" cy="8" r="8" transform="translate(108.881 53.113)" fill="#7e9503"/>
        <circle id="Ellipse_11" data-name="Ellipse 11" cx="8" cy="8" r="8" transform="translate(-0.119 53.113)" fill="#7e9503"/>
      </g>
      <g id="Group_13" data-name="Group 13" transform="translate(587.335 689.718)" opacity="0.47">
        <circle id="Ellipse_8-2" data-name="Ellipse 8" cx="8" cy="8" r="8" transform="translate(-0.459 0.113)" fill="#7e9503"/>
        <circle id="Ellipse_9-2" data-name="Ellipse 9" cx="8" cy="8" r="8" transform="translate(108.541 0.113)" fill="#7e9503"/>
        <circle id="Ellipse_10-2" data-name="Ellipse 10" cx="8" cy="8" r="8" transform="translate(108.541 53.113)" fill="#7e9503"/>
        <circle id="Ellipse_11-2" data-name="Ellipse 11" cx="8" cy="8" r="8" transform="translate(-0.459 53.113)" fill="#7e9503"/>
      </g>
    </g>
    <g id="Rectangle_92" data-name="Rectangle 92" fill="none" stroke="rgba(252,252,252,0.01)" stroke-width="1">
      <rect width="1920" height="869" stroke="none"/>
      <rect x="0.5" y="0.5" width="1919" height="868" fill="none"/>
    </g>
  </g>
</svg>
